<svg xmlns="http://www.w3.org/2000/svg" width="32" height="32" viewBox="0 0 32 32"><g fill="#4e0089"><path d="M8.61 11.46v2.06q-.8-.36-1.56-.54-.76-.18-1.44-.18-.9 0-1.33.24-.43.25-.43.77 0 .4.3.61.28.22 1.05.37l1.06.22q1.62.32 2.3.99.7.66.7 1.89 0 1.6-.97 2.4-.95.77-2.9.77-.93 0-1.86-.17-.93-.18-1.86-.52v-2.12q.93.5 1.8.75t1.67.25q.82 0 1.26-.28.44-.27.44-.78 0-.45-.3-.7-.3-.25-1.18-.44l-.97-.22q-1.46-.31-2.14-1-.67-.68-.67-1.84 0-1.45.94-2.23t2.7-.78q.8 0 1.64.12.85.12 1.75.36zM10.3 11.15h2.51l2.58 7.18 2.57-7.18h2.52l-3.6 9.72H13.9zM30.5 20.15q-.93.46-1.94.69-1 .22-2.08.22-2.43 0-3.85-1.35-1.42-1.36-1.42-3.69 0-2.35 1.45-3.7 1.44-1.34 3.95-1.34.97 0 1.86.18.9.18 1.68.54v2.01q-.81-.46-1.62-.69-.8-.22-1.6-.22-1.5 0-2.32.84-.8.83-.8 2.38 0 1.55.77 2.39.78.84 2.22.84.4 0 .73-.05.33-.05.6-.15v-1.9H26.6v-1.67h3.9z"/></g></svg>